<?xml version="1.0" encoding="utf-8"?>
<!-- Generator: Adobe Illustrator 16.0.0, SVG Export Plug-In . SVG Version: 6.00 Build 0)  -->
<!DOCTYPE svg PUBLIC "-//W3C//DTD SVG 1.1//EN" "http://www.w3.org/Graphics/SVG/1.1/DTD/svg11.dtd">
<svg version="1.1" id="Camada_1" xmlns="http://www.w3.org/2000/svg" xmlns:xlink="http://www.w3.org/1999/xlink" x="0px" y="0px"
	 width="157px" height="75px" viewBox="0 0 157 75" enable-background="new 0 0 157 75" xml:space="preserve">
<linearGradient id="SVGID_1_" gradientUnits="userSpaceOnUse" x1="95.8252" y1="-695.792" x2="149.5942" y2="-762.3635" gradientTransform="matrix(1 0 0 -1 0.1201 -693.7158)">
	<stop  offset="0.1799" style="stop-color:#5A70FD"/>
	<stop  offset="1" style="stop-color:#FF59F8"/>
</linearGradient>
<path fill="none" stroke="url(#SVGID_1_)" stroke-width="4.3008" d="M88.274,20.039v-6.364c0-2.812,2.279-5.091,5.092-5.091h54.73
	c2.812,0,5.092,2.279,5.092,5.091v35.638c0,2.813-2.28,5.092-5.092,5.092h-8.91l2.979,13.893c0.261,1.215-1.195,2.047-2.107,1.203
	l-13.599-12.555H93.366c-2.813,0-5.092-2.277-5.092-5.088v-2.547"/>
<g>
	<g enable-background="new    ">
		<linearGradient id="SVGID_2_" gradientUnits="userSpaceOnUse" x1="109.3857" y1="47.5078" x2="102.8857" y2="34.6953">
			<stop  offset="0" style="stop-color:#FF59F8"/>
			<stop  offset="0.9312" style="stop-color:#485BFF"/>
		</linearGradient>
		<path fill="url(#SVGID_2_)" d="M106.286,27.283h-4.043v14.704h-4.884V27.283h-3.974v-4.071h12.9V27.283z"/>
	</g>
	<g enable-background="new    ">
		<linearGradient id="SVGID_3_" gradientUnits="userSpaceOnUse" x1="118.4316" y1="42.9189" x2="111.9316" y2="30.1064">
			<stop  offset="0" style="stop-color:#FF59F8"/>
			<stop  offset="0.9312" style="stop-color:#485BFF"/>
		</linearGradient>
		<path fill="url(#SVGID_3_)" d="M120.987,41.935h-4.525v-1.418c-0.432,0.541-0.866,0.934-1.306,1.182
			c-0.771,0.432-1.646,0.648-2.624,0.648c-1.586,0-2.993-0.545-4.229-1.637c-1.475-1.301-2.213-3.023-2.213-5.166
			c0-2.181,0.755-3.921,2.268-5.222c1.198-1.035,2.578-1.554,4.134-1.554c0.908,0,1.759,0.189,2.557,0.563
			c0.456,0.222,0.929,0.584,1.414,1.087v-1.251h4.525V41.935z M116.598,35.55c0-0.803-0.283-1.486-0.849-2.047
			c-0.564-0.562-1.249-0.841-2.052-0.841c-0.896,0-1.628,0.337-2.202,1.013c-0.467,0.548-0.699,1.173-0.699,1.875
			c0,0.703,0.232,1.328,0.699,1.876c0.564,0.674,1.297,1.012,2.202,1.012c0.813,0,1.498-0.277,2.062-0.836
			C116.319,37.046,116.598,36.362,116.598,35.55z"/>
	</g>
	<g enable-background="new    ">
		<linearGradient id="SVGID_4_" gradientUnits="userSpaceOnUse" x1="129.2637" y1="37.4233" x2="122.7637" y2="24.6108">
			<stop  offset="0" style="stop-color:#FF59F8"/>
			<stop  offset="0.9312" style="stop-color:#485BFF"/>
		</linearGradient>
		<path fill="url(#SVGID_4_)" d="M128.586,41.954h-4.527V21.295h4.526L128.586,41.954L128.586,41.954z"/>
	</g>
	<g enable-background="new    ">
		<linearGradient id="SVGID_5_" gradientUnits="userSpaceOnUse" x1="137.9854" y1="32.9985" x2="131.4854" y2="20.186">
			<stop  offset="0" style="stop-color:#FF59F8"/>
			<stop  offset="0.9312" style="stop-color:#485BFF"/>
		</linearGradient>
		<path fill="url(#SVGID_5_)" d="M147.41,41.989h-6.328l-4.965-5.199v5.199h-4.525V21.331h4.525v12.489l4.719-4.594h6.189
			l-6.397,5.887L147.41,41.989z"/>
	</g>
</g>
<g>
	<path fill="#29292E" d="M0.03,41.938V23.241h12.29v3.855H4.654v3.378h6.565v3.83H4.654v3.7h7.776v3.934H0.03z"/>
	<path fill="#29292E" d="M19.779,41.938h-4.308V30.32h3.978v1.947c0.66-0.765,1.362-1.335,2.105-1.708
		c0.743-0.374,1.55-0.561,2.422-0.561c1.312,0,2.307,0.353,2.986,1.057c0.679,0.705,1.019,1.737,1.019,3.095v7.788h-4.28v-6.654
		c0-0.61-0.133-1.07-0.399-1.379c-0.266-0.31-0.661-0.464-1.183-0.464c-0.753,0-1.331,0.236-1.734,0.709
		c-0.404,0.473-0.606,1.16-0.606,2.063V41.938z"/>
	<path fill="#29292E" d="M43.437,30.32v10.534c0,1.066-0.055,1.867-0.165,2.406c-0.11,0.537-0.289,1.028-0.537,1.476
		c-0.514,0.929-1.261,1.632-2.243,2.108s-2.17,0.716-3.564,0.716c-0.835,0-1.682-0.086-2.54-0.258
		c-0.858-0.173-1.769-0.438-2.732-0.8l-0.055-3.224c0.917,0.464,1.752,0.806,2.504,1.024c0.753,0.22,1.459,0.329,2.12,0.329
		c0.963,0,1.711-0.214,2.243-0.645c0.532-0.43,0.798-1.036,0.798-1.818v-0.787c-0.496,0.294-0.986,0.508-1.472,0.646
		c-0.487,0.138-1,0.206-1.542,0.206c-1.752,0-3.168-0.55-4.246-1.65c-1.078-1.1-1.617-2.548-1.617-4.345
		c0-1.865,0.61-3.411,1.83-4.636c1.22-1.225,2.762-1.837,4.624-1.837c0.431,0,0.881,0.056,1.349,0.167s0.986,0.284,1.555,0.516
		L43.437,30.32z M39.116,33.273c-0.257-0.138-0.502-0.236-0.737-0.297c-0.234-0.06-0.465-0.09-0.695-0.09
		c-0.817,0-1.505,0.32-2.064,0.961c-0.56,0.64-0.84,1.446-0.84,2.417c0,0.912,0.246,1.669,0.737,2.275
		c0.49,0.606,1.089,0.91,1.796,0.91c0.275,0,0.566-0.073,0.874-0.22c0.307-0.146,0.617-0.361,0.929-0.645V33.273z"/>
	<path fill="#29292E" d="M50.993,41.938H46.63v-18.4l4.363-0.555V41.938z"/>
	<path fill="#29292E" d="M53.924,25.988c0-0.619,0.229-1.143,0.688-1.573c0.458-0.43,1.019-0.645,1.679-0.645
		c0.669,0,1.231,0.212,1.686,0.638c0.455,0.426,0.682,0.952,0.682,1.58c0,0.619-0.229,1.148-0.688,1.586
		c-0.459,0.438-1.019,0.658-1.679,0.658c-0.643,0-1.198-0.221-1.665-0.664C54.158,27.125,53.924,26.598,53.924,25.988z
		 M58.494,41.938h-4.363V30.32l4.363-0.554V41.938z"/>
	<path fill="#29292E" d="M61.687,41.41v-3.198c1.092,0.653,1.94,1.094,2.545,1.322c0.606,0.228,1.166,0.34,1.679,0.34
		c0.45,0,0.813-0.092,1.087-0.276c0.275-0.185,0.413-0.428,0.413-0.729c0-0.258-0.096-0.472-0.289-0.645
		c-0.192-0.172-0.523-0.335-0.991-0.489l-1.596-0.529c-1.046-0.335-1.84-0.807-2.381-1.412c-0.542-0.606-0.812-1.322-0.812-2.147
		c0-1.169,0.436-2.108,1.308-2.817c0.872-0.709,2.032-1.063,3.481-1.063c0.67,0,1.379,0.088,2.126,0.264
		c0.748,0.176,1.581,0.449,2.498,0.819l-0.537,2.824c-0.55-0.438-1.151-0.782-1.803-1.031c-0.651-0.25-1.261-0.374-1.831-0.374
		c-0.422,0-0.766,0.092-1.032,0.277s-0.398,0.419-0.398,0.703c0,0.241,0.075,0.432,0.227,0.574c0.152,0.142,0.489,0.294,1.012,0.458
		l1.486,0.503c1.166,0.387,1.998,0.855,2.498,1.405c0.5,0.55,0.75,1.268,0.75,2.153c0,1.28-0.45,2.293-1.349,3.036
		c-0.899,0.744-2.124,1.116-3.675,1.116c-0.752,0-1.493-0.089-2.223-0.265C63.152,42.052,62.42,41.779,61.687,41.41z"/>
	<path fill="#29292E" d="M77.995,41.938h-4.308v-18.4l4.308-0.555v8.975c0.605-0.662,1.255-1.154,1.948-1.477
		c0.691-0.322,1.443-0.483,2.251-0.483c1.312,0,2.307,0.353,2.986,1.057c0.678,0.705,1.019,1.737,1.019,3.095v7.788h-4.28v-6.654
		c0-0.61-0.134-1.07-0.4-1.379c-0.266-0.31-0.66-0.464-1.184-0.464c-0.752,0-1.33,0.236-1.734,0.709
		c-0.404,0.473-0.605,1.16-0.605,2.063V41.938z"/>
</g>
</svg>
